<svg width="176" height="59" viewBox="0 0 176 59" fill="none" xmlns="http://www.w3.org/2000/svg">
<path fill-rule="evenodd" clip-rule="evenodd" d="M6.78279 49.4339C6.78279 55.412 9.77182 58.401 15.7499 58.401C16.363 58.401 16.8803 58.1902 17.3019 57.7687C17.7234 57.3472 17.9342 56.8107 17.9342 56.1592C17.9342 55.5461 17.7234 55.0096 17.3019 54.5498C16.8803 54.1282 16.363 53.9175 15.7499 53.9175C12.7225 53.9175 11.2089 52.4229 11.2089 49.4339V35.9833C11.2089 33.1476 10.4616 30.9058 8.96708 29.258C9.69518 28.4149 10.2508 27.4377 10.634 26.3264C11.0172 25.2151 11.2089 23.9314 11.2089 22.4752V9.02457C11.2089 5.99722 12.7225 4.48354 15.7499 4.48354C16.363 4.48354 16.8803 4.27278 17.3019 3.85125C17.7234 3.42972 17.9342 2.91239 17.9342 2.29925C17.9342 1.6478 17.7234 1.11131 17.3019 0.689778C16.8803 0.229926 16.363 0 15.7499 0C9.77182 0 6.78279 3.00819 6.78279 9.02457V22.4752C6.78279 25.5025 5.26912 27.0162 2.24177 27.0162C1.62864 27.0162 1.09214 27.227 0.632294 27.6485C0.210765 28.07 0 28.6065 0 29.258C0 29.8711 0.210765 30.3885 0.632294 30.81C1.09214 31.2315 1.62864 31.4423 2.24177 31.4423C5.26912 31.4423 6.78279 32.9559 6.78279 35.9833V49.4339ZM28.8461 20.5957C28.9242 20.7975 28.9633 21.0254 28.9633 21.2793C28.9633 21.5983 28.8819 21.8848 28.7191 22.1387C28.5629 22.3926 28.3188 22.5911 27.9867 22.7344C27.6612 22.8776 27.2445 22.9492 26.7367 22.9492C26.3201 22.9492 25.9359 22.9069 25.5844 22.8223C25.2393 22.7376 24.9398 22.6009 24.6859 22.4121C24.4385 22.2233 24.2465 21.9759 24.1098 21.6699C23.9731 21.3639 23.9047 20.9896 23.9047 20.5469H20.9652C20.9652 21.3477 21.1313 22.041 21.4633 22.627C21.7953 23.2129 22.238 23.6947 22.7914 24.0723C23.3513 24.4499 23.9731 24.7331 24.6566 24.9219C25.3402 25.1042 26.0336 25.1953 26.7367 25.1953C27.518 25.1953 28.2244 25.1074 28.8559 24.9316C29.4874 24.7559 30.031 24.4987 30.4867 24.1602C30.9425 23.8216 31.2908 23.4082 31.5316 22.9199C31.7725 22.4316 31.893 21.8783 31.893 21.2598C31.893 20.6738 31.7921 20.1497 31.5902 19.6875C31.3884 19.2253 31.0889 18.8118 30.6918 18.4473C30.2947 18.0827 29.7999 17.7539 29.2074 17.4609C28.6215 17.168 27.9412 16.9043 27.1664 16.6699C26.7042 16.5267 26.2973 16.3802 25.9457 16.2305C25.5941 16.0807 25.2979 15.9212 25.057 15.752C24.8162 15.5827 24.6339 15.4004 24.5102 15.2051C24.393 15.0098 24.3344 14.7917 24.3344 14.5508C24.3344 14.2318 24.419 13.9453 24.5883 13.6914C24.7576 13.431 25.0115 13.2259 25.35 13.0762C25.6885 12.9199 26.1117 12.8418 26.6195 12.8418C27.1469 12.8418 27.5831 12.9329 27.9281 13.1152C28.2797 13.2975 28.5401 13.5482 28.7094 13.8672C28.8852 14.1797 28.9731 14.5443 28.9731 14.9609H31.8832C31.8832 14.1146 31.6651 13.3626 31.2289 12.7051C30.7992 12.0475 30.1938 11.5299 29.4125 11.1523C28.6313 10.7747 27.7165 10.5859 26.6684 10.5859C25.9001 10.5859 25.1938 10.6803 24.5492 10.8691C23.9112 11.0579 23.3578 11.3281 22.8891 11.6797C22.4203 12.0247 22.0557 12.4414 21.7953 12.9297C21.5349 13.4115 21.4047 13.9486 21.4047 14.541C21.4047 15.153 21.5284 15.6901 21.7758 16.1523C22.0297 16.6146 22.3747 17.0215 22.8109 17.373C23.2537 17.7181 23.7615 18.0208 24.3344 18.2812C24.9138 18.5417 25.5258 18.776 26.1703 18.9844C26.7497 19.1667 27.2217 19.3424 27.5863 19.5117C27.9509 19.681 28.2341 19.8535 28.4359 20.0293C28.6378 20.1986 28.7745 20.3874 28.8461 20.5957ZM45.4004 25V10.7812H42.4805V25H45.4004ZM63.8297 20.5957C63.9078 20.7975 63.9469 21.0254 63.9469 21.2793C63.9469 21.5983 63.8655 21.8848 63.7027 22.1387C63.5465 22.3926 63.3023 22.5911 62.9703 22.7344C62.6448 22.8776 62.2281 22.9492 61.7203 22.9492C61.3036 22.9492 60.9195 22.9069 60.568 22.8223C60.2229 22.7376 59.9234 22.6009 59.6695 22.4121C59.4221 22.2233 59.2301 21.9759 59.0934 21.6699C58.9566 21.3639 58.8883 20.9896 58.8883 20.5469H55.9488C55.9488 21.3477 56.1148 22.041 56.4469 22.627C56.7789 23.2129 57.2216 23.6947 57.775 24.0723C58.3349 24.4499 58.9566 24.7331 59.6402 24.9219C60.3238 25.1042 61.0172 25.1953 61.7203 25.1953C62.5016 25.1953 63.2079 25.1074 63.8395 24.9316C64.471 24.7559 65.0146 24.4987 65.4703 24.1602C65.926 23.8216 66.2744 23.4082 66.5152 22.9199C66.7561 22.4316 66.8766 21.8783 66.8766 21.2598C66.8766 20.6738 66.7757 20.1497 66.5738 19.6875C66.372 19.2253 66.0725 18.8118 65.6754 18.4473C65.2783 18.0827 64.7835 17.7539 64.191 17.4609C63.6051 17.168 62.9247 16.9043 62.15 16.6699C61.6878 16.5267 61.2809 16.3802 60.9293 16.2305C60.5777 16.0807 60.2815 15.9212 60.0406 15.752C59.7997 15.5827 59.6175 15.4004 59.4938 15.2051C59.3766 15.0098 59.318 14.7917 59.318 14.5508C59.318 14.2318 59.4026 13.9453 59.5719 13.6914C59.7411 13.431 59.9951 13.2259 60.3336 13.0762C60.6721 12.9199 61.0953 12.8418 61.6031 12.8418C62.1305 12.8418 62.5667 12.9329 62.9117 13.1152C63.2633 13.2975 63.5237 13.5482 63.693 13.8672C63.8688 14.1797 63.9566 14.5443 63.9566 14.9609H66.8668C66.8668 14.1146 66.6487 13.3626 66.2125 12.7051C65.7828 12.0475 65.1773 11.5299 64.3961 11.1523C63.6148 10.7747 62.7001 10.5859 61.652 10.5859C60.8837 10.5859 60.1773 10.6803 59.5328 10.8691C58.8948 11.0579 58.3414 11.3281 57.8727 11.6797C57.4039 12.0247 57.0393 12.4414 56.7789 12.9297C56.5185 13.4115 56.3883 13.9486 56.3883 14.541C56.3883 15.153 56.512 15.6901 56.7594 16.1523C57.0133 16.6146 57.3583 17.0215 57.7945 17.373C58.2372 17.7181 58.7451 18.0208 59.318 18.2812C59.8974 18.5417 60.5094 18.776 61.1539 18.9844C61.7333 19.1667 62.2053 19.3424 62.5699 19.5117C62.9345 19.681 63.2177 19.8535 63.4195 20.0293C63.6214 20.1986 63.7581 20.3874 63.8297 20.5957ZM83.6262 25V13.0762H88.0012V10.7812H83.6262H80.7063H76.3996V13.0762H80.7063V25H83.6262ZM107.612 25V22.7148H101.001V18.7988H106.626V16.5723H101.001V13.0762H107.602V10.7812H101.001H100.044H98.0711V25H100.044H101.001H107.612ZM121.539 10.7812H120.192H119.059H117.721V25H120.641V20.957L120.35 14.3535L124.196 25H126.188L130.034 14.3535L129.743 20.957V25H132.672V10.7812H131.325H130.192H128.844L125.192 21.2207L121.539 10.7812ZM149.881 10.7812H150.623L155.936 25H152.811L151.824 22.002H146.714L145.73 25H142.615L147.898 10.7812H148.621H149.881ZM147.467 19.707H151.07L149.266 14.2236L147.467 19.707ZM172.939 20.5957C173.017 20.7975 173.056 21.0254 173.056 21.2793C173.056 21.5983 172.975 21.8848 172.812 22.1387C172.656 22.3926 172.412 22.5911 172.08 22.7344C171.754 22.8776 171.337 22.9492 170.83 22.9492C170.413 22.9492 170.029 22.9069 169.677 22.8223C169.332 22.7376 169.033 22.6009 168.779 22.4121C168.532 22.2233 168.339 21.9759 168.203 21.6699C168.066 21.3639 167.998 20.9896 167.998 20.5469H165.058C165.058 21.3477 165.224 22.041 165.556 22.627C165.888 23.2129 166.331 23.6947 166.884 24.0723C167.444 24.4499 168.066 24.7331 168.75 24.9219C169.433 25.1042 170.127 25.1953 170.83 25.1953C171.611 25.1953 172.317 25.1074 172.949 24.9316C173.58 24.7559 174.124 24.4987 174.58 24.1602C175.035 23.8216 175.384 23.4082 175.625 22.9199C175.865 22.4316 175.986 21.8783 175.986 21.2598C175.986 20.6738 175.885 20.1497 175.683 19.6875C175.481 19.2253 175.182 18.8118 174.785 18.4473C174.388 18.0827 173.893 17.7539 173.3 17.4609C172.714 17.168 172.034 16.9043 171.259 16.6699C170.797 16.5267 170.39 16.3802 170.039 16.2305C169.687 16.0807 169.391 15.9212 169.15 15.752C168.909 15.5827 168.727 15.4004 168.603 15.2051C168.486 15.0098 168.427 14.7917 168.427 14.5508C168.427 14.2318 168.512 13.9453 168.681 13.6914C168.851 13.431 169.104 13.2259 169.443 13.0762C169.782 12.9199 170.205 12.8418 170.712 12.8418C171.24 12.8418 171.676 12.9329 172.021 13.1152C172.373 13.2975 172.633 13.5482 172.802 13.8672C172.978 14.1797 173.066 14.5443 173.066 14.9609H175.976C175.976 14.1146 175.758 13.3626 175.322 12.7051C174.892 12.0475 174.287 11.5299 173.505 11.1523C172.724 10.7747 171.809 10.5859 170.761 10.5859C169.993 10.5859 169.287 10.6803 168.642 10.8691C168.004 11.0579 167.451 11.3281 166.982 11.6797C166.513 12.0247 166.149 12.4414 165.888 12.9297C165.628 13.4115 165.498 13.9486 165.498 14.541C165.498 15.153 165.621 15.6901 165.869 16.1523C166.123 16.6146 166.468 17.0215 166.904 17.373C167.347 17.7181 167.854 18.0208 168.427 18.2812C169.007 18.5417 169.619 18.776 170.263 18.9844C170.843 19.1667 171.315 19.3424 171.679 19.5117C172.044 19.681 172.327 19.8535 172.529 20.0293C172.731 20.1986 172.867 20.3874 172.939 20.5957ZM33.5727 48V45.7148H27.3617V33.7812H24.432V48H26.4145H27.3617H33.5727ZM46.7676 48V33.7812H43.8477V48H46.7676ZM69.484 48V33.7812H66.5641V43.3223L60.8414 33.7812H57.9117V48H60.8414V38.4688L66.5543 48H69.484ZM89.9738 48V45.7148H83.3625V41.7988H88.9875V39.5723H83.3625V36.0762H89.9641V33.7812H83.3625H82.4055H80.4328V48H82.4055H83.3625H89.9738ZM106.147 33.7812H106.889L112.202 48H109.077L108.091 45.002H102.98L101.997 48H98.8816L104.165 33.7812H104.888H106.147ZM103.733 42.707H107.336L105.532 37.2236L103.733 42.707ZM127.223 33.7812H121.92V48H124.85V42.7363H127.177L129.87 48H133.004V47.8633L129.927 42.0287C130.324 41.8496 130.683 41.6363 131.002 41.3887C131.471 41.0241 131.832 40.5716 132.086 40.0312C132.347 39.4844 132.477 38.8301 132.477 38.0684C132.477 37.1374 132.265 36.3529 131.842 35.7148C131.419 35.0768 130.814 34.5951 130.026 34.2695C129.245 33.944 128.31 33.7812 127.223 33.7812ZM124.85 40.4512H127.243C127.757 40.4512 128.183 40.36 128.522 40.1777C128.86 39.9954 129.114 39.7415 129.284 39.416C129.459 39.0905 129.547 38.7129 129.547 38.2832C129.547 37.8275 129.463 37.4336 129.293 37.1016C129.124 36.7695 128.867 36.5156 128.522 36.3398C128.177 36.1641 127.744 36.0762 127.223 36.0762H124.85V40.4512ZM152.674 48V45.7148H146.063V41.7988H151.688V39.5723H146.063V36.0762H152.664V33.7812H146.063H145.105H143.133V48H145.105H146.063H152.674ZM170.068 43.5957C170.146 43.7975 170.185 44.0254 170.185 44.2793C170.185 44.5983 170.104 44.8848 169.941 45.1387C169.785 45.3926 169.541 45.5911 169.209 45.7344C168.883 45.8776 168.466 45.9492 167.959 45.9492C167.542 45.9492 167.158 45.9069 166.806 45.8223C166.461 45.7376 166.162 45.6009 165.908 45.4121C165.66 45.2233 165.468 44.9759 165.332 44.6699C165.195 44.3639 165.127 43.9896 165.127 43.5469H162.187C162.187 44.3477 162.353 45.041 162.685 45.627C163.017 46.2129 163.46 46.6947 164.013 47.0723C164.573 47.4499 165.195 47.7331 165.879 47.9219C166.562 48.1042 167.255 48.1953 167.959 48.1953C168.74 48.1953 169.446 48.1074 170.078 47.9316C170.709 47.7559 171.253 47.4987 171.709 47.1602C172.164 46.8216 172.513 46.4082 172.754 45.9199C172.994 45.4316 173.115 44.8783 173.115 44.2598C173.115 43.6738 173.014 43.1497 172.812 42.6875C172.61 42.2253 172.311 41.8118 171.914 41.4473C171.517 41.0827 171.022 40.7539 170.429 40.4609C169.843 40.168 169.163 39.9043 168.388 39.6699C167.926 39.5267 167.519 39.3802 167.168 39.2305C166.816 39.0807 166.52 38.9212 166.279 38.752C166.038 38.5827 165.856 38.4004 165.732 38.2051C165.615 38.0098 165.556 37.7917 165.556 37.5508C165.556 37.2318 165.641 36.9453 165.81 36.6914C165.979 36.431 166.233 36.2259 166.572 36.0762C166.91 35.9199 167.334 35.8418 167.841 35.8418C168.369 35.8418 168.805 35.9329 169.15 36.1152C169.502 36.2975 169.762 36.5482 169.931 36.8672C170.107 37.1797 170.195 37.5443 170.195 37.9609H173.105C173.105 37.1146 172.887 36.3626 172.451 35.7051C172.021 35.0475 171.416 34.5299 170.634 34.1523C169.853 33.7747 168.938 33.5859 167.89 33.5859C167.122 33.5859 166.416 33.6803 165.771 33.8691C165.133 34.0579 164.58 34.3281 164.111 34.6797C163.642 35.0247 163.278 35.4414 163.017 35.9297C162.757 36.4115 162.627 36.9486 162.627 37.541C162.627 38.153 162.75 38.6901 162.998 39.1523C163.252 39.6146 163.597 40.0215 164.033 40.373C164.476 40.7181 164.983 41.0208 165.556 41.2812C166.136 41.5417 166.748 41.776 167.392 41.9844C167.972 42.1667 168.444 42.3424 168.808 42.5117C169.173 42.681 169.456 42.8535 169.658 43.0293C169.86 43.1986 169.996 43.3874 170.068 43.5957Z" fill="white"/>
</svg>
